# xmcd CD database file generated by Grip 3.3.1
# 
# Track frame offsets:
#       150
#       29143
#       37469
#       58130
#       75865
#       93749
#       152469
#       254043
#       278198
#       315194
# 
# Disc length: 4598 seconds
# 
# Revision: 1
# Processed by: cddbd v1.5.2PL0 Copyright (c) Steve Scherf et al.
# Submitted via: Grip 3.3.1
# 
DISCID=8811f40a
DTITLE=Alessandro Deljavan, Alan Weiss - Alkan Edition CD 8
DYEAR=2017
DGENRE=Classical
TTITLE0=Nocture No.1 Op.22
TTITLE1=Toccatina Op.75
TTITLE2=Nr.1 - Assez vivement, Chants Op.38a
TTITLE3=Nr.5 - Agitatissimo, Chants Op.38a
TTITLE4=Nr.6 - Barcarolle, Chants Op.38a
TTITLE5=I. Fantasia en la bemol, 3 grandes études pour les deux mains sé
TTITLE5=parées et réunies Op.76
TTITLE6=II. Introduction, Variations et Finale, 3 grandes études pour le
TTITLE6=s deux mains séparées et réunies Op.76
TTITLE7=III. Etude de Concert, 3 grandes études pour les deux mains sép
TTITLE7=arées et réunies Op.76
TTITLE8=I. Ma chère liberté, 2 Petites Pièces Op.60
TTITLE9=II. Ma chère servitude, 2 Petites Pièces Op.60
EXTD=
EXTT0=
EXTT1=
EXTT2=
EXTT3=
EXTT4=
EXTT5=
EXTT6=
EXTT7=
EXTT8=
EXTT9=
PLAYORDER=
